<svg width="16" height="21" viewBox="0 0 16 21" fill="none" xmlns="http://www.w3.org/2000/svg">
<path d="M2.19869 9.43346C2.47033 8.02094 3.70631 7 5.14471 7H10.8553C12.2937 7 13.5297 8.02094 13.8013 9.43346L15.3141 17.3001C15.6699 19.1503 14.2522 20.8667 12.3681 20.8667H3.63189C1.74781 20.8667 0.33007 19.1503 0.685873 17.3001L2.19869 9.43346Z" fill="#BB9DFF"/>
<path d="M11.4066 14.4066C11.6311 14.182 11.6311 13.818 11.4066 13.5934L7.74731 9.93414C7.52276 9.70958 7.15869 9.70958 6.93414 9.93414C6.70958 10.1587 6.70958 10.5228 6.93414 10.7473L10.1868 14L6.93414 17.2527C6.70958 17.4772 6.70958 17.8413 6.93414 18.0659C7.15869 18.2904 7.52276 18.2904 7.74731 18.0659L11.4066 14.4066ZM1 14.575H11V13.425H1V14.575Z" fill="white"/>
<circle cx="8" cy="4" r="4" fill="#BB9DFF"/>
</svg>
